<svg width="58" height="58" viewBox="0 0 58 58" fill="none" xmlns="http://www.w3.org/2000/svg">
<g clip-path="url(#clip0)">
<path d="M29.0071 53.0117C25.0564 53.0117 21.3367 51.8501 18.1976 49.8367L20.5336 47.4269C23.0227 48.888 25.918 49.7279 29.0071 49.7279V46.3308C26.8424 46.3308 24.7971 45.8135 22.9855 44.8975L25.2149 42.5974C21.3659 41.08 18.6348 37.3227 18.6348 32.9415C18.6348 32.406 18.6755 31.8794 18.7547 31.3644L15.6417 32.1343C15.7413 30.4369 16.1559 28.8005 16.8785 27.2615L13.804 25.8176C12.753 28.0553 12.2207 30.4515 12.2207 32.9415V32.9813L0.975311 35.7646L0.682815 36.6594C-0.571687 40.4924 -0.0822761 44.7922 2.02493 48.4575C4.13214 52.1218 7.60182 54.7083 11.545 55.553L12.4654 55.7499L15.7833 52.328C19.6605 54.9742 24.2604 56.4093 29.0071 56.4093C30.6254 56.4093 32.2427 56.2424 33.8141 55.9154L33.1211 52.5896C31.7772 52.8692 30.3935 53.0117 29.0071 53.0117Z" fill="#6C7294"/>
<path d="M35.9903 32.9414C35.9903 36.7961 32.8658 39.9206 29.0111 39.9206C25.1565 39.9206 22.0315 36.7961 22.0315 32.9414C22.0315 29.0867 25.1565 25.9618 29.0111 25.9618C32.8658 25.9618 35.9903 29.0867 35.9903 32.9414Z" fill="#2DA1DB"/>
<path d="M19.7441 15.1111L20.6787 18.3702C19.1224 19.2591 17.7037 20.3982 16.4877 21.7593L19.0198 24.0232C19.8008 23.1488 20.6862 22.3903 21.6491 21.7584L22.5332 24.8418C24.3099 23.4174 26.5623 22.5647 29.0106 22.5647C31.4599 22.5647 33.7122 23.4174 35.4889 24.8418L40.537 7.22876L39.9073 6.53005C37.2102 3.53252 33.2379 1.8125 29.0106 1.8125C24.7834 1.8125 20.8119 3.53252 18.1148 6.53005L17.4851 7.22876L18.7954 11.8034C17.459 12.4512 16.1771 13.2305 14.9655 14.1372C11.0228 17.086 8.05005 21.2863 6.59509 25.964L9.83954 26.9729C11.4781 21.7027 15.1005 17.513 19.7441 15.1111Z" fill="#6C7294"/>
<path d="M57.3291 36.7363L57.0393 35.8407L52.4089 34.6809C52.4509 34.1056 52.4748 33.526 52.4748 32.9419C52.4748 26.2313 49.5915 19.8278 44.566 15.374L42.3127 17.9162C46.6112 21.7252 49.0777 27.2026 49.0777 32.9419C49.0777 33.2428 49.0684 33.5428 49.0547 33.8419L45.7913 33.0242C45.7926 32.9972 45.7935 32.9689 45.7935 32.9419C45.7935 29.0509 44.4314 25.2586 41.9596 22.2633L39.3391 24.425C41.1463 26.6149 42.2061 29.3394 42.3702 32.1684L39.2723 31.3913C39.3479 31.8975 39.3878 32.4153 39.3878 32.9419C39.3878 37.3328 36.6438 41.0972 32.7816 42.6075L45.4948 55.7942L46.4152 55.5995C50.3606 54.7662 53.8382 52.1886 55.9547 48.53C58.0721 44.8714 58.5726 40.5729 57.3291 36.7363Z" fill="#6C7294"/>
</g>
<defs>
<clipPath id="clip0">
<rect width="58" height="58" fill="white"/>
</clipPath>
</defs>
</svg>
