<svg width="58" height="58" viewBox="0 0 58 58" fill="none" xmlns="http://www.w3.org/2000/svg">
<g clip-path="url(#clip0)">
<path d="M23.8226 0H3.10725C2.53524 0 2.07153 0.463705 2.07153 1.03571V3.10714C2.07153 3.67915 2.53524 4.14286 3.10725 4.14286H23.8226C24.3946 4.14286 24.8583 3.67915 24.8583 3.10714V1.03571C24.8583 0.463705 24.3946 0 23.8226 0Z" fill="#2DA1DB"/>
<path d="M35.2143 41.4286V51.7857H53.8571V37.2857C53.8463 27.566 45.9696 19.6894 36.25 19.6785H25.8928C24.1768 19.6785 22.7857 18.2874 22.7857 16.5714V6.21426H4.14282V20.7143C4.15367 30.4339 12.0303 38.3106 21.75 38.3214H32.1071C33.8231 38.3214 35.2143 39.7125 35.2143 41.4286ZM38.3214 41.4286H50.75C51.322 41.4286 51.7857 41.8923 51.7857 42.4643C51.7857 43.0363 51.322 43.5 50.75 43.5H38.3214C37.7494 43.5 37.2857 43.0363 37.2857 42.4643C37.2857 41.8923 37.7494 41.4286 38.3214 41.4286ZM19.6785 16.5714H7.24997C6.67796 16.5714 6.21425 16.1077 6.21425 15.5357C6.21425 14.9637 6.67796 14.5 7.24997 14.5H19.6785C20.2505 14.5 20.7143 14.9637 20.7143 15.5357C20.7143 16.1077 20.2505 16.5714 19.6785 16.5714ZM30.0357 35.2143C30.0357 35.7863 29.572 36.25 29 36.25C28.428 36.25 27.9643 35.7863 27.9643 35.2143V22.7857C27.9643 22.2137 28.428 21.75 29 21.75C29.572 21.75 30.0357 22.2137 30.0357 22.7857V35.2143Z" fill="#6C7294"/>
<path d="M54.8941 53.8571H34.1788C33.6068 53.8571 33.1431 54.3209 33.1431 54.8929V56.9643C33.1431 57.5363 33.6068 58 34.1788 58H54.8941C55.4661 58 55.9298 57.5363 55.9298 56.9643V54.8929C55.9298 54.3209 55.4661 53.8571 54.8941 53.8571Z" fill="#2DA1DB"/>
</g>
<defs>
<clipPath id="clip0">
<rect width="58" height="58" fill="white"/>
</clipPath>
</defs>
</svg>
