<svg width="58" height="58" viewBox="0 0 58 58" fill="none" xmlns="http://www.w3.org/2000/svg">
<path d="M19.9375 41.6875H1.8125C0.812 41.6875 0 42.4995 0 43.5C0 44.5005 0.812 45.3125 1.8125 45.3125H19.9375C20.938 45.3125 21.75 46.1281 21.75 47.125C21.75 48.1219 20.938 48.9375 19.9375 48.9375C18.937 48.9375 18.125 49.7495 18.125 50.75C18.125 51.7505 18.937 52.5625 19.9375 52.5625C22.9354 52.5625 25.375 50.1229 25.375 47.125C25.375 44.1271 22.9354 41.6875 19.9375 41.6875Z" fill="#6C7294"/>
<path d="M23.5625 12.6875C22.562 12.6875 21.75 13.4995 21.75 14.5C21.75 15.5005 22.562 16.3125 23.5625 16.3125C24.563 16.3125 25.375 17.1245 25.375 18.125C25.375 19.1255 24.563 19.9375 23.5625 19.9375H1.8125C0.812 19.9375 0 20.7495 0 21.75C0 22.7505 0.812 23.5625 1.8125 23.5625H23.5625C26.5604 23.5625 29 21.1229 29 18.125C29 15.1271 26.5604 12.6875 23.5625 12.6875Z" fill="#6C7294"/>
<path d="M38.0625 16.3125C37.062 16.3125 36.25 17.1245 36.25 18.125C36.25 19.1255 37.062 19.9375 38.0625 19.9375C41.0604 19.9375 43.5 22.3771 43.5 25.375C43.5 28.3729 41.0604 30.8125 38.0625 30.8125H1.8125C0.812 30.8125 0 31.6245 0 32.625C0 33.6255 0.812 34.4375 1.8125 34.4375H38.0625C43.0614 34.4375 47.125 30.3702 47.125 25.375C47.125 20.3797 43.0614 16.3125 38.0625 16.3125Z" fill="#6C7294"/>
<path d="M36.25 56.1875C38.252 56.1875 39.875 54.5645 39.875 52.5625C39.875 50.5605 38.252 48.9375 36.25 48.9375C34.248 48.9375 32.625 50.5605 32.625 52.5625C32.625 54.5645 34.248 56.1875 36.25 56.1875Z" fill="#2DA1DB"/>
<path d="M54.375 45.3125C56.377 45.3125 58 43.6895 58 41.6875C58 39.6855 56.377 38.0625 54.375 38.0625C52.373 38.0625 50.75 39.6855 50.75 41.6875C50.75 43.6895 52.373 45.3125 54.375 45.3125Z" fill="#2DA1DB"/>
<path d="M54.375 19.9375C56.377 19.9375 58 18.3145 58 16.3125C58 14.3105 56.377 12.6875 54.375 12.6875C52.373 12.6875 50.75 14.3105 50.75 16.3125C50.75 18.3145 52.373 19.9375 54.375 19.9375Z" fill="#2DA1DB"/>
<path d="M39.875 9.0625C41.877 9.0625 43.5 7.43953 43.5 5.4375C43.5 3.43547 41.877 1.8125 39.875 1.8125C37.873 1.8125 36.25 3.43547 36.25 5.4375C36.25 7.43953 37.873 9.0625 39.875 9.0625Z" fill="#2DA1DB"/>
</svg>
