<svg width="58" height="58" viewBox="0 0 58 58" fill="none" xmlns="http://www.w3.org/2000/svg">
<path d="M21.4242 29.3333C23.2424 27.5151 24.3939 24.9697 24.3939 22.1212C24.3939 21.0909 24.0909 19.9394 23.606 18.7273C23.0606 17.4545 22.3333 16.1818 21.4848 14.8485C21.4848 14.7879 21.4242 14.7879 21.4242 14.7273C19.6666 12.0606 17.3636 9.45454 15.4242 7.21212L14.2121 5.81818L13 7.21212C9.2424 11.5758 4.03027 17.5758 4.03027 22.1212C4.03027 24.9091 5.18179 27.4545 6.99997 29.3333C8.81815 31.1515 11.3636 32.303 14.2121 32.303C17 32.303 19.5454 31.1515 21.4242 29.3333Z" fill="#6C7294"/>
<path d="M48.6364 0.363636L48.3334 0L48.0304 0.363636C45.7879 2.9697 42.697 6.54545 42.697 9.09091C42.697 10.6667 43.3031 12.0606 44.3334 13.0909C45.3637 14.1212 46.7576 14.7273 48.3334 14.7273C49.9091 14.7273 51.3031 14.1212 52.3334 13.0909C53.3637 12.0606 53.9697 10.6667 53.9697 9.09091C53.9697 6.54545 50.8788 2.9697 48.6364 0.363636Z" fill="#2DA1DB"/>
<path d="M29.1818 8.78787C28.2727 9.87878 27.2424 11.0303 26.2121 12.303L24.6363 14.1212C25.3636 15.2727 25.9697 16.4242 26.4545 17.5758C27.1212 19.1515 27.4848 20.6667 27.4848 22.1212C27.4848 25.7576 26.0303 29.0909 23.606 31.5151C21.1818 33.9394 17.9091 35.3939 14.2121 35.3939C13.3636 35.3939 12.5757 35.3333 11.7879 35.1515C11.4848 35.0909 11.2424 35.0303 10.9394 34.9697C10.8182 35.4545 10.6969 35.9394 10.5757 36.4242C10.3939 37.3333 10.2727 38.1818 10.2727 39.0909C10.2727 44.303 12.3939 49.0303 15.7879 52.4848C19.2424 55.9394 23.9697 58 29.1818 58C34.3939 58 39.1212 55.8788 42.5757 52.4848C46.0303 49.0909 48.0909 44.303 48.0909 39.0909C48.0909 30.7879 38.8181 20.1212 32.1515 12.3636C31.1212 11.0303 30.1515 9.87878 29.1818 8.78787Z" fill="#6C7294"/>
</svg>
