<svg width="58" height="58" viewBox="0 0 58 58" fill="none" xmlns="http://www.w3.org/2000/svg">
<path d="M41.4951 25.3859C42.0022 25.2769 42.3632 24.8612 42.3693 24.3791V19.8689C42.3692 19.5951 42.2517 19.3325 42.0426 19.1389L27.5481 5.71577C27.1127 5.31268 26.4069 5.31268 25.9716 5.71577L11.4771 19.1389C11.268 19.3325 11.1505 19.5951 11.1504 19.8689V34.2513C11.1504 34.8216 11.6496 35.2839 12.2654 35.2839H14.4953C15.111 35.2839 15.6102 34.8216 15.6102 34.2513V23.9258C15.6102 22.7853 16.6086 21.8607 17.8402 21.8607H24.5299C25.7615 21.8607 26.7598 22.7853 26.7598 23.9258V34.2513C26.7598 34.8216 27.259 35.2839 27.8748 35.2839H29.8126C30.3003 35.281 30.7294 34.9848 30.8718 34.5528C32.4882 30.0164 36.4948 26.559 41.4951 25.3859Z" fill="#6C7294"/>
<path d="M16.7254 49.2233C16.7272 48.132 17.2604 47.0997 18.1767 46.4135C19.0929 45.7272 20.2945 45.4603 21.4472 45.6868C23.2722 46.0762 24.5564 47.5923 24.5301 49.3266V51.8047C24.5301 52.3749 25.0293 52.8372 25.645 52.8372H27.875C28.4907 52.8372 28.9899 52.3749 28.9899 51.8047V49.5042C29.0512 45.4262 25.764 41.9694 21.3881 41.5101C19.0709 41.3167 16.7714 42.025 15.0408 43.4651C13.3102 44.9051 12.3048 46.9472 12.2655 49.1015C12.2694 51.0014 10.7352 52.6025 8.69763 52.8248C7.60836 52.9116 6.52973 52.5713 5.7243 51.8866C4.91887 51.2019 4.4605 50.2358 4.46078 49.2233V36.8327C4.46078 34.8368 6.20793 33.2188 8.36314 33.2188H8.92062V29.0886H8.36314C3.74482 29.0886 0.000932375 32.5557 0.000932375 36.8327V48.9538C-0.0617008 52.9114 3.03799 56.3052 7.26268 56.9044C9.65146 57.1947 12.0595 56.518 13.8713 55.0473C15.6831 53.5766 16.7231 51.4545 16.7254 49.2233Z" fill="#6C7294"/>
<path d="M23.4151 35.2839C24.0309 35.2839 24.5301 34.8216 24.5301 34.2514V23.9259H17.8403V34.2514C17.8403 34.8216 18.3395 35.2839 18.9553 35.2839H23.4151Z" fill="#6C7294"/>
<path d="M12.2653 2.24228C11.6496 2.24228 11.1504 2.70457 11.1504 3.27483V10.6803L14.4953 7.58263V3.27483C14.4953 2.70457 13.9961 2.24228 13.3803 2.24228H12.2653Z" fill="#6C7294"/>
<path d="M25.1834 0.604634L5.24903 19.0656C4.81337 19.4688 4.81312 20.1227 5.24847 20.5261C5.68383 20.9296 6.38992 20.9298 6.82558 20.5267L25.1834 3.52572C26.0542 2.71954 27.4658 2.71954 28.3365 3.52572L46.6944 20.5267C47.1319 20.918 47.8273 20.9124 48.2574 20.5141C48.6874 20.1158 48.6935 19.4718 48.2709 19.0666L28.3365 0.604634C27.4658 -0.201545 26.0542 -0.201545 25.1834 0.604634Z" fill="#6C7294"/>
<path d="M45.1568 27.0235C38.0753 27.0235 32.3347 32.3398 32.3347 38.8978C32.3347 45.4558 38.0753 50.7722 45.1568 50.7722C52.2382 50.7722 57.9788 45.4558 57.9788 38.8978C57.9708 32.3429 52.2349 27.0309 45.1568 27.0235ZM45.1568 47.6745C41.7715 47.6711 39.0282 45.1305 39.0245 41.9955C39.0245 39.8695 41.7595 33.7237 43.19 31.2198C43.5778 30.5476 44.3338 30.1279 45.1568 30.1279C45.9797 30.1279 46.7357 30.5476 47.1236 31.2198C48.554 33.7237 51.289 39.8695 51.289 41.9955C51.2854 45.1305 48.542 47.6711 45.1568 47.6745Z" fill="#6C7294"/>
<path d="M23.1432 58H30.3771C30.7775 57.9996 31.1469 57.8003 31.3449 57.478C31.5429 57.1557 31.539 56.7598 31.3348 56.4408L30.6737 55.4083C30.4729 55.0947 30.1084 54.9024 29.7148 54.9023H23.8055C23.4118 54.9024 23.0474 55.0947 22.8466 55.4083L22.1854 56.4408C21.9812 56.7598 21.9774 57.1557 22.1754 57.478C22.3734 57.8003 22.7428 57.9996 23.1432 58Z" fill="#6C7294"/>
<path d="M41.2544 41.9954C41.2544 43.9914 43.0015 45.6094 45.1568 45.6094C47.312 45.6094 49.0591 43.9914 49.0591 41.9954C49.0591 40.4642 46.6218 34.7583 45.1568 32.1862C43.6917 34.7583 41.2544 40.4642 41.2544 41.9954Z" fill="#2DA1DB"/>
</svg>
